<svg width="28" height="28" viewBox="0 0 28 28" fill="none" xmlns="http://www.w3.org/2000/svg">
<path d="M14.0054 7.71123C10.5273 7.71123 7.72183 10.5167 7.72183 13.9948C7.72183 17.4729 10.5273 20.2784 14.0054 20.2784C17.4835 20.2784 20.289 17.4729 20.289 13.9948C20.289 10.5167 17.4835 7.71123 14.0054 7.71123ZM14.0054 18.08C11.7578 18.08 9.92026 16.2479 9.92026 13.9948C9.92026 11.7417 11.7523 9.90967 14.0054 9.90967C16.2585 9.90967 18.0906 11.7417 18.0906 13.9948C18.0906 16.2479 16.2531 18.08 14.0054 18.08ZM22.0117 7.4542C22.0117 8.26904 21.3554 8.91982 20.546 8.91982C19.7312 8.91982 19.0804 8.26357 19.0804 7.4542C19.0804 6.64482 19.7367 5.98857 20.546 5.98857C21.3554 5.98857 22.0117 6.64482 22.0117 7.4542ZM26.1734 8.9417C26.0804 6.97842 25.632 5.23936 24.1937 3.80654C22.7609 2.37373 21.0218 1.92529 19.0585 1.82686C17.0351 1.71201 10.9703 1.71201 8.94683 1.82686C6.98901 1.91982 5.24995 2.36826 3.81167 3.80107C2.37339 5.23389 1.93042 6.97295 1.83198 8.93623C1.71714 10.9597 1.71714 17.0245 1.83198 19.0479C1.92495 21.0112 2.37339 22.7503 3.81167 24.1831C5.24995 25.6159 6.98354 26.0644 8.94683 26.1628C10.9703 26.2776 17.0351 26.2776 19.0585 26.1628C21.0218 26.0698 22.7609 25.6214 24.1937 24.1831C25.6265 22.7503 26.075 21.0112 26.1734 19.0479C26.2882 17.0245 26.2882 10.9651 26.1734 8.9417ZM23.5593 21.219C23.1328 22.2909 22.307 23.1167 21.2296 23.5487C19.6164 24.1886 15.7882 24.0409 14.0054 24.0409C12.2226 24.0409 8.38901 24.1831 6.7812 23.5487C5.70933 23.1222 4.88355 22.2964 4.45151 21.219C3.81167 19.6058 3.95933 15.7776 3.95933 13.9948C3.95933 12.212 3.81714 8.37842 4.45151 6.77061C4.87808 5.69873 5.70386 4.87295 6.7812 4.44092C8.39448 3.80107 12.2226 3.94873 14.0054 3.94873C15.7882 3.94873 19.6218 3.80654 21.2296 4.44092C22.3015 4.86748 23.1273 5.69326 23.5593 6.77061C24.1992 8.38389 24.0515 12.212 24.0515 13.9948C24.0515 15.7776 24.1992 19.6112 23.5593 21.219Z" fill="#E5E7EB"/>
</svg>
