<svg width="26" height="28" viewBox="0 0 26 28" fill="none" xmlns="http://www.w3.org/2000/svg">
<path d="M25.25 11.4795C22.8423 11.4852 20.4938 10.7344 18.536 9.33297V19.1067C18.5353 20.9169 17.982 22.6838 16.9501 24.171C15.9182 25.6583 14.4568 26.7951 12.7613 27.4294C11.0659 28.0636 9.21719 28.1652 7.46247 27.7204C5.70775 27.2757 4.13063 26.3058 2.942 24.9405C1.75336 23.5753 1.00987 21.8796 0.810932 20.0804C0.611995 18.2811 0.967096 16.4641 1.82875 14.8721C2.69041 13.2801 4.01756 11.9891 5.63273 11.1718C7.2479 10.3544 9.07411 10.0496 10.8672 10.2982V15.2141C10.0467 14.956 9.16558 14.9637 8.34976 15.2363C7.53393 15.5088 6.82508 16.0321 6.32443 16.7316C5.82378 17.431 5.55694 18.2707 5.562 19.1308C5.56707 19.991 5.84379 20.8275 6.35264 21.521C6.8615 22.2145 7.57646 22.7294 8.39544 22.9923C9.21442 23.2552 10.0955 23.2526 10.9129 22.9849C11.7303 22.7171 12.4423 22.198 12.947 21.5015C13.4517 20.805 13.7235 19.9669 13.7235 19.1067V0H18.536C18.5326 0.406405 18.5667 0.812255 18.6377 1.21242C18.8049 2.10573 19.1527 2.95554 19.6596 3.70985C20.1665 4.46417 20.822 5.10715 21.5859 5.59945C22.6728 6.3181 23.947 6.70113 25.25 6.70086V11.4795Z" fill="#E5E7EB"/>
</svg>
